<svg width="54" height="54" viewBox="0 0 54 54" fill="none" xmlns="http://www.w3.org/2000/svg">
<path d="M17.1914 14.793L35.2969 34.0586V21.6836C35.2969 20.6875 35.2852 19.8203 35.2617 19.082C35.2383 18.332 35.2031 17.6875 35.1562 17.1484C35.1094 16.5977 35.0508 16.1406 34.9805 15.7773C34.9219 15.4141 34.8574 15.1094 34.7871 14.8633V14.793H37.916V14.8633C37.8457 15.1094 37.7812 15.4141 37.7227 15.7773C37.6641 16.1406 37.6113 16.5977 37.5645 17.1484C37.5176 17.6875 37.4824 18.332 37.459 19.082C37.4355 19.8203 37.4238 20.6875 37.4238 21.6836V40.3516H36.8086L18.7031 21.1035V33.127C18.7031 34.123 18.7148 34.9961 18.7383 35.7461C18.7617 36.4844 18.7969 37.123 18.8438 37.6621C18.8906 38.2012 18.9434 38.6523 19.002 39.0156C19.0605 39.3789 19.125 39.6836 19.1953 39.9297V40H16.0664V39.9297C16.1367 39.6836 16.2012 39.3789 16.2598 39.0156C16.3301 38.6523 16.3887 38.2012 16.4355 37.6621C16.4824 37.123 16.5176 36.4844 16.541 35.7461C16.5645 34.9961 16.5762 34.123 16.5762 33.127V21.6836C16.5762 20.6875 16.5645 19.8203 16.541 19.082C16.5176 18.332 16.4824 17.6875 16.4355 17.1484C16.3887 16.5977 16.3301 16.1406 16.2598 15.7773C16.2012 15.4141 16.1367 15.1094 16.0664 14.8633V14.793H17.1914Z" fill="#253646"/>
<path fill-rule="evenodd" clip-rule="evenodd" d="M9.54059 9.48579L9.90601 18.0429L15.5198 15.7984L18.1054 9.48579H9.54059ZM17.8916 7.48579L15.6467 2.49697C12.9388 3.75444 10.4741 5.44736 8.34268 7.48579H9.45518H17.8916ZM17.4913 1.7225C20.3351 0.651407 23.4073 0.046224 26.6147 0L19.7453 6.73137L17.4913 1.7225ZM21.0105 8.29174L27.6004 10.9684L34.3834 8.25643L27.3292 2.1L21.0105 8.29174ZM37.1917 14.8641L30.2728 12.0538L35.2805 10.0517L37.1917 14.8641ZM24.9221 12.0392L20.034 10.0538L18.1043 14.7651L24.9221 12.0392ZM14.4648 18.3741L12.1422 24.0444L10.6201 19.9113L14.4648 18.3741ZM11.02 26.7843L8.23202 33.5908L2.19464 27.2406L8.83245 20.8444L11.02 26.7843ZM9.39114 36.3843L9.70001 45.0599L18.0343 45.8304L15.5959 39.2093L9.39114 36.3843ZM14.6235 36.5691L10.03 34.4776L12.0432 29.5627L14.6235 36.5691ZM18.1566 40.3752L24.6263 43.3209L19.9327 45.1977L18.1566 40.3752ZM27.145 44.4677L33.6056 47.4093L27.2655 52.6612L20.6599 47.0609L27.145 44.4677ZM34.8183 49.0018L28.8231 53.968C31.4246 53.7958 33.9254 53.2553 36.2739 52.3982L34.8183 49.0018ZM38.1261 51.6429C40.6636 50.4961 42.9922 48.9687 45.0392 47.1335L36.602 48.0865L38.1261 51.6429ZM36.8448 46.0463L39.5087 39.5239L45.6747 37.0583L45.2848 45.093L36.8448 46.0463ZM36.9266 40.5564L34.8027 45.7567L29.7148 43.4402L36.9266 40.5564ZM43.3252 24.8897L40.7797 18.4801L45.2083 20.2789L43.3252 24.8897ZM40.5601 36.9495L43.2992 30.2429L45.2223 35.0853L40.5601 36.9495ZM44.3903 27.5715L47.0229 21.1255L52.6103 27.2343L46.9362 33.9822L44.3903 27.5715ZM45.691 18.3162L39.7575 15.9062L37.2077 9.48579H45.289L45.691 18.3162ZM47.2988 44.853L47.6867 36.8582L51.5208 38.3918C50.424 40.7501 48.9968 42.9236 47.2988 44.853ZM53.9741 28.7201C53.8032 31.4601 53.2238 34.0894 52.2962 36.5479L48.6262 35.0799L53.9741 28.7201ZM7.48977 8.3385L7.53877 9.48579L7.90128 17.9748L2.45114 15.7452C3.71406 12.9968 5.42475 10.4967 7.48977 8.3385ZM0 26.5779L7.04794 19.7866L1.68432 17.5924C0.640787 20.397 0.0497657 23.4217 0 26.5779ZM27.9809 0.0141945L35.4328 6.51775L37.1965 1.98274C34.3363 0.817778 31.2317 0.128802 27.9809 0.0141945ZM45.6811 7.48579H37.2023L39.0219 2.80688C41.4769 4.02736 43.72 5.61034 45.6811 7.48579ZM47.6696 17.8017L51.7612 16.1651C50.6311 13.5903 49.111 11.2255 47.2756 9.14551L47.6696 17.8017ZM52.4962 18.0252L48.3972 19.6647L54 25.7904C53.8793 23.0789 53.3589 20.4713 52.4962 18.0252ZM25.7505 53.9988L19.3009 48.5309L17.7535 52.3995C20.2659 53.3161 22.9527 53.8702 25.7505 53.9988ZM8.82284 46.9873L17.4454 47.7845L15.9014 51.6446C13.2954 50.4673 10.9096 48.8886 8.82284 46.9873ZM6.47975 34.6504L1.72866 36.5508C0.701966 33.8307 0.101629 30.9015 0.00914683 27.8445L6.47975 34.6504ZM7.39184 36.4396L7.72987 45.9341C5.58635 43.7501 3.81099 41.2034 2.50429 38.3946L7.39184 36.4396Z" fill="#C3CBD2"/>
</svg>
